<?xml version="1.0" standalone="no"?>
<!DOCTYPE svg PUBLIC "-//W3C//DTD SVG 20010904//EN"
 "http://www.w3.org/TR/2001/REC-SVG-20010904/DTD/svg10.dtd">
<svg version="1.0" xmlns="http://www.w3.org/2000/svg"
 width="120.000000pt" height="120.000000pt" viewBox="0 0 120.000000 120.000000"
 preserveAspectRatio="xMidYMid meet">
<metadata>
Created by potrace 1.11, written by Peter Selinger 2001-2013
</metadata>
<g transform="translate(0.000000,120.000000) scale(0.100000,-0.100000)"
fill="#000000" stroke="none">
<path d="M307 1184 c-1 -1 -44 -5 -96 -8 -111 -7 -153 -27 -173 -84 -10 -28
-13 -144 -14 -497 0 -253 3 -473 8 -490 11 -40 26 -53 73 -61 22 -3 44 -12 48
-20 10 -17 51 -18 80 -2 32 17 725 18 732 1 6 -19 72 -16 83 2 4 9 26 17 47
19 41 4 74 33 76 65 7 98 10 722 5 867 -6 158 -33 189 -174 200 -61 5 -691 12
-695 8z"/>
</g>
</svg>
